- 
http://www.Speed.Cd 
       
http://www.Speed.Cd      fast  and The Hottest Private Tracker on the net

(((--Submit for invite!!--)))

Please Seed back to make the speed Faster!!!

------------------nfo--------------------------
-








































          
          
              
              
                    
                    
                    
                    

Ensign.Pulver.1964.DVDRip.x264.AC3-SiC

Poster:
[img]http://img36.imageshack.us/img36/2125/ensignpulver001.jpg[/img]

IMDB Link: 
http://www.imdb.com/title/tt0058060/

Description:
1945, on an old cargo ship somewhere deep in the Pacific ocean: Captain Morton strives to become commander, so he demands the maximum quality of work from his crew, without granting them any freedom or favors - ignoring that they're thousand of miles away from the front. In one word: he drives his crew crazy. They are near mutiny, but no-one dares to do the first step. Until Ensign Pulver plays a prank on the captain that triggers fatal consequences...

MediaInfo:
General
Complete name                    : Ensign.Pulver.1964.DVDRip.x264.AC3-SiC.mkv
Format                           : Matroska
Format version                   : Version 2
File size                        : 1.56 GiB
Duration                         : 1h 44mn
Overall bit rate                 : 2 136 Kbps
Encoded date                     : UTC 2011-08-24 22:41:05
Writing application              : mkvmerge v4.9.1 ('Ich will') built on Jul 11 2011 23:53:15
Writing library                  : libebml v1.2.1 + libmatroska v1.1.1

Video
ID                               : 2
Format                           : AVC
Format/Info                      : Advanced Video Codec
Format profile                   : High@L3.0
Format settings, CABAC           : Yes
Format settings, ReFrames        : 4 frames
Muxing mode                      : Header stripping
Codec ID                         : V_MPEG4/ISO/AVC
Duration                         : 1h 44mn
Bit rate                         : 1 901 Kbps
Width                            : 720 pixels
Height                           : 368 pixels
Display aspect ratio             : 2.40:1
Frame rate                       : 23.976 fps
Color space                      : YUV
Chroma subsampling               : 4:2:0
Bit depth                        : 8 bits
Scan type                        : Progressive
Bits/(Pixel*Frame)               : 0.299
Stream size                      : 1.39 GiB (89%)
Writing library                  : x264 core 115 r1995 c1e60b9
Encoding settings                : cabac=1 / ref=3 / deblock=1:0:0 / analyse=0x3:0x133 / me=umh / subme=7 / psy=1 / psy_rd=1.00:0.00 / mixed_ref=1 / me_range=16 / chroma_me=1 / trellis=1 / 8x8dct=1 / cqm=0 / deadzone=21,11 / fast_pskip=1 / chroma_qp_offset=-2 / threads=9 / sliced_threads=0 / nr=0 / decimate=1 / interlaced=0 / bluray_compat=0 / constrained_intra=0 / bframes=3 / b_pyramid=2 / b_adapt=1 / b_bias=0 / direct=1 / weightb=1 / open_gop=1 / weightp=2 / keyint=250 / keyint_min=23 / scenecut=40 / intra_refresh=0 / rc_lookahead=40 / rc=crf / mbtree=1 / crf=18.0 / qcomp=0.60 / qpmin=0 / qpmax=69 / qpstep=4 / ip_ratio=1.40 / aq=1:1.00
Language                         : English

Audio
ID                               : 1
Format                           : AC-3
Format/Info                      : Audio Coding 3
Mode extension                   : CM (complete main)
Muxing mode                      : Header stripping
Codec ID                         : A_AC3
Duration                         : 1h 44mn
Bit rate mode                    : Constant
Bit rate                         : 192 Kbps
Channel(s)                       : 2 channels
Channel positions                : Front: L R
Sampling rate                    : 48.0 KHz
Bit depth                        : 16 bits
Compression mode                 : Lossy
Stream size                      : 143 MiB (9%)



Screenshots:
[img]http://img695.imageshack.us/img695/8223/vlcsnap2011082421h57m59.png[/img]
[img]http://img690.imageshack.us/img690/7105/vlcsnap2011082421h58m10.png[/img]
[img]http://img11.imageshack.us/img11/6565/vlcsnap2011082421h58m38.png[/img]
[img]http://img37.imageshack.us/img37/7391/vlcsnap2011082421h58m50.png[/img]
[img]http://img155.imageshack.us/img155/179/vlcsnap2011082421h59m01.png[/img]

Note: N/A

Encoder: Brian

Enjoy!

Respects to CaptainHomey, Cyanide, CM8, Rx, THC, ELEKTRI4KA, 
Killerhz, PA, YeFsTe, BoxSlots, MrRep and everyone in the struggle...